<svg id="visual" viewBox="0 0 960 540" width="960" height="540" xmlns="http://www.w3.org/2000/svg" xmlns:xlink="http://www.w3.org/1999/xlink" version="1.1"><g stroke-width="1" stroke-linejoin="bevel"><path d="M495.3 307L452.7 388L517.3 389Z" fill="#205a7a" stroke="#205a7a"></path><path d="M452.7 388L426.7 464L517.3 389Z" fill="#081a28" stroke="#081a28"></path><path d="M642 479L620 332L517.3 389Z" fill="#15384f" stroke="#15384f"></path><path d="M517.3 389L620 332L495.3 307Z" fill="#297ea6" stroke="#297ea6"></path><path d="M401.7 215L399.7 242L495.3 307Z" fill="#15384f" stroke="#15384f"></path><path d="M495.3 307L399.7 242L452.7 388Z" fill="#112e42" stroke="#112e42"></path><path d="M452.7 388L310 394L426.7 464Z" fill="#081a28" stroke="#081a28"></path><path d="M426.7 464L545.3 483L517.3 389Z" fill="#112e42" stroke="#112e42"></path><path d="M555.3 183L401.7 215L495.3 307Z" fill="#081a28" stroke="#081a28"></path><path d="M325 260L452.7 388L399.7 242Z" fill="#246688" stroke="#246688"></path><path d="M325 260L310 394L452.7 388Z" fill="#246688" stroke="#246688"></path><path d="M629 213L555.3 183L495.3 307Z" fill="#246688" stroke="#246688"></path><path d="M335 199L325 260L399.7 242Z" fill="#15384f" stroke="#15384f"></path><path d="M328 540L452.7 540L426.7 464Z" fill="#277297" stroke="#277297"></path><path d="M426.7 464L452.7 540L545.3 483Z" fill="#277297" stroke="#277297"></path><path d="M620 332L629 213L495.3 307Z" fill="#112e42" stroke="#112e42"></path><path d="M452.7 540L552.3 540L545.3 483Z" fill="#081a28" stroke="#081a28"></path><path d="M545.3 483L642 479L517.3 389Z" fill="#00101c" stroke="#00101c"></path><path d="M620 332L736.7 270L653 250Z" fill="#19435d" stroke="#19435d"></path><path d="M615 540L642 479L545.3 483Z" fill="#19435d" stroke="#19435d"></path><path d="M653 250L629 213L620 332Z" fill="#081a28" stroke="#081a28"></path><path d="M248.3 442L294 426L224.3 388Z" fill="#081a28" stroke="#081a28"></path><path d="M310 394L294 426L426.7 464Z" fill="#205a7a" stroke="#205a7a"></path><path d="M405.7 76L335 199L401.7 215Z" fill="#19435d" stroke="#19435d"></path><path d="M401.7 215L335 199L399.7 242Z" fill="#277297" stroke="#277297"></path><path d="M224.3 388L294 426L310 394Z" fill="#246688" stroke="#246688"></path><path d="M552.3 540L615 540L545.3 483Z" fill="#0c2435" stroke="#0c2435"></path><path d="M294 426L328 540L426.7 464Z" fill="#081a28" stroke="#081a28"></path><path d="M678 113L508.3 109L555.3 183Z" fill="#15384f" stroke="#15384f"></path><path d="M555.3 183L508.3 109L401.7 215Z" fill="#205a7a" stroke="#205a7a"></path><path d="M224.3 388L310 394L215.3 298Z" fill="#0c2435" stroke="#0c2435"></path><path d="M294 426L248.3 442L328 540Z" fill="#00101c" stroke="#00101c"></path><path d="M215.3 298L310 394L325 260Z" fill="#19435d" stroke="#19435d"></path><path d="M754.7 170L678 113L629 213Z" fill="#1d4e6b" stroke="#1d4e6b"></path><path d="M629 213L678 113L555.3 183Z" fill="#19435d" stroke="#19435d"></path><path d="M778.7 380L736.7 270L620 332Z" fill="#297ea6" stroke="#297ea6"></path><path d="M778.7 380L620 332L642 479Z" fill="#1d4e6b" stroke="#1d4e6b"></path><path d="M247.3 160L215.3 298L325 260Z" fill="#15384f" stroke="#15384f"></path><path d="M508.3 109L405.7 76L401.7 215Z" fill="#0c2435" stroke="#0c2435"></path><path d="M335 199L247.3 160L325 260Z" fill="#19435d" stroke="#19435d"></path><path d="M768.7 469L778.7 380L642 479Z" fill="#19435d" stroke="#19435d"></path><path d="M615 540L720.7 540L642 479Z" fill="#112e42" stroke="#112e42"></path><path d="M720.7 540L768.7 469L642 479Z" fill="#081a28" stroke="#081a28"></path><path d="M285 114L247.3 160L335 199Z" fill="#1d4e6b" stroke="#1d4e6b"></path><path d="M754.7 170L653 250L736.7 270Z" fill="#277297" stroke="#277297"></path><path d="M754.7 170L629 213L653 250Z" fill="#246688" stroke="#246688"></path><path d="M508.3 109L543.3 0L405.7 76Z" fill="#277297" stroke="#277297"></path><path d="M405.7 76L285 114L335 199Z" fill="#297ea6" stroke="#297ea6"></path><path d="M852.3 265L754.7 170L736.7 270Z" fill="#19435d" stroke="#19435d"></path><path d="M174.3 0L234.3 121L285 114Z" fill="#112e42" stroke="#112e42"></path><path d="M285 114L234.3 121L247.3 160Z" fill="#15384f" stroke="#15384f"></path><path d="M68.7 277L71.7 325L215.3 298Z" fill="#277297" stroke="#277297"></path><path d="M112.7 459L248.3 442L224.3 388Z" fill="#246688" stroke="#246688"></path><path d="M112.7 459L195.3 540L248.3 442Z" fill="#081a28" stroke="#081a28"></path><path d="M248.3 442L195.3 540L328 540Z" fill="#15384f" stroke="#15384f"></path><path d="M873.3 540L819.3 455L768.7 469Z" fill="#00101c" stroke="#00101c"></path><path d="M768.7 469L819.3 455L778.7 380Z" fill="#277297" stroke="#277297"></path><path d="M778.7 380L852.3 265L736.7 270Z" fill="#297ea6" stroke="#297ea6"></path><path d="M617 0L508.3 109L678 113Z" fill="#277297" stroke="#277297"></path><path d="M617 0L543.3 0L508.3 109Z" fill="#205a7a" stroke="#205a7a"></path><path d="M405.7 76L337 0L285 114Z" fill="#277297" stroke="#277297"></path><path d="M543.3 0L398.7 0L405.7 76Z" fill="#246688" stroke="#246688"></path><path d="M754.7 86L617 0L678 113Z" fill="#081a28" stroke="#081a28"></path><path d="M892.3 329L852.3 265L778.7 380Z" fill="#0c2435" stroke="#0c2435"></path><path d="M754.7 170L754.7 86L678 113Z" fill="#205a7a" stroke="#205a7a"></path><path d="M825.3 77L754.7 86L754.7 170Z" fill="#246688" stroke="#246688"></path><path d="M398.7 0L337 0L405.7 76Z" fill="#081a28" stroke="#081a28"></path><path d="M71.7 325L112.7 459L224.3 388Z" fill="#205a7a" stroke="#205a7a"></path><path d="M71.7 325L224.3 388L215.3 298Z" fill="#15384f" stroke="#15384f"></path><path d="M852.3 265L840.3 172L754.7 170Z" fill="#297ea6" stroke="#297ea6"></path><path d="M112.7 459L132.7 540L195.3 540Z" fill="#1d4e6b" stroke="#1d4e6b"></path><path d="M819.3 455L892.3 329L778.7 380Z" fill="#0c2435" stroke="#0c2435"></path><path d="M852.3 265L960 157L840.3 172Z" fill="#1d4e6b" stroke="#1d4e6b"></path><path d="M68.7 277L215.3 298L88.7 172Z" fill="#1d4e6b" stroke="#1d4e6b"></path><path d="M112.7 459L0 488L132.7 540Z" fill="#00101c" stroke="#00101c"></path><path d="M88.7 172L215.3 298L247.3 160Z" fill="#00101c" stroke="#00101c"></path><path d="M88.7 172L247.3 160L234.3 121Z" fill="#00101c" stroke="#00101c"></path><path d="M720.7 540L873.3 540L768.7 469Z" fill="#15384f" stroke="#15384f"></path><path d="M819.3 455L960 426L892.3 329Z" fill="#205a7a" stroke="#205a7a"></path><path d="M107.7 104L88.7 172L234.3 121Z" fill="#112e42" stroke="#112e42"></path><path d="M960 157L825.3 77L840.3 172Z" fill="#15384f" stroke="#15384f"></path><path d="M840.3 172L825.3 77L754.7 170Z" fill="#246688" stroke="#246688"></path><path d="M754.7 86L783.7 0L617 0Z" fill="#081a28" stroke="#081a28"></path><path d="M174.3 0L107.7 104L234.3 121Z" fill="#19435d" stroke="#19435d"></path><path d="M825.3 77L783.7 0L754.7 86Z" fill="#277297" stroke="#277297"></path><path d="M337 0L174.3 0L285 114Z" fill="#081a28" stroke="#081a28"></path><path d="M960 426L960 322L892.3 329Z" fill="#205a7a" stroke="#205a7a"></path><path d="M892.3 329L960 276L852.3 265Z" fill="#297ea6" stroke="#297ea6"></path><path d="M825.3 77L824.3 0L783.7 0Z" fill="#1d4e6b" stroke="#1d4e6b"></path><path d="M873.3 540L960 426L819.3 455Z" fill="#205a7a" stroke="#205a7a"></path><path d="M960 322L960 276L892.3 329Z" fill="#277297" stroke="#277297"></path><path d="M0 288L68.7 277L0 164Z" fill="#19435d" stroke="#19435d"></path><path d="M0 288L71.7 325L68.7 277Z" fill="#19435d" stroke="#19435d"></path><path d="M0 288L0 354L71.7 325Z" fill="#205a7a" stroke="#205a7a"></path><path d="M71.7 325L0 354L112.7 459Z" fill="#081a28" stroke="#081a28"></path><path d="M960 56L824.3 0L825.3 77Z" fill="#277297" stroke="#277297"></path><path d="M0 164L68.7 277L88.7 172Z" fill="#205a7a" stroke="#205a7a"></path><path d="M174.3 0L134.7 0L107.7 104Z" fill="#19435d" stroke="#19435d"></path><path d="M0 129L0 164L88.7 172Z" fill="#205a7a" stroke="#205a7a"></path><path d="M0 354L0 488L112.7 459Z" fill="#19435d" stroke="#19435d"></path><path d="M873.3 540L960 540L960 426Z" fill="#277297" stroke="#277297"></path><path d="M960 276L960 157L852.3 265Z" fill="#0c2435" stroke="#0c2435"></path><path d="M0 488L0 540L132.7 540Z" fill="#246688" stroke="#246688"></path><path d="M0 129L88.7 172L107.7 104Z" fill="#15384f" stroke="#15384f"></path><path d="M0 0L0 129L107.7 104Z" fill="#112e42" stroke="#112e42"></path><path d="M960 157L960 56L825.3 77Z" fill="#15384f" stroke="#15384f"></path><path d="M960 56L960 0L824.3 0Z" fill="#205a7a" stroke="#205a7a"></path><path d="M134.7 0L0 0L107.7 104Z" fill="#246688" stroke="#246688"></path></g></svg>